<svg xmlns="http://www.w3.org/2000/svg" viewBox="0 0 29 29">
<path d="M19.795 27H9.205a2.99 2.99 0 0 1-2.985-2.702L4.505 7.099A.998.998 0 0 1 5.5 6h18a1 1 0 0 1 .995 1.099L22.78 24.297A2.991 2.991 0 0 1 19.795 27zM6.604 8L8.21 24.099a.998.998 0 0 0 .995.901h10.59a.998.998 0 0 0 .995-.901L22.396 8H6.604z"/>
<path d="M26 8H3a1 1 0 110-2h23a1 1 0 110 2zM14.5 23a1 1 0 01-1-1V11a1 1 0 112 0v11a1 1 0 01-1 1zM10.999 23a1 1 0 01-.995-.91l-1-11a1 1 0 01.905-1.086 1.003 1.003 0 011.087.906l1 11a1 1 0 01-.997 1.09zM18.001 23a1 1 0 01-.997-1.09l1-11c.051-.55.531-.946 1.087-.906a1 1 0 01.905 1.086l-1 11a1 1 0 01-.995.91z"/>
<path d="M19 8h-9a1 1 0 0 1-1-1V3a1 1 0 0 1 1-1h9a1 1 0 0 1 1 1v4a1 1 0 0 1-1 1zm-8-2h7V4h-7v2z"/>
</svg>